<svg xmlns="http://www.w3.org/2000/svg" viewBox="0 0 900 560" width="100%" height="100%">
  <defs>
    <linearGradient id="bgGrad" x1="0%" y1="0%" x2="100%" y2="100%">
      <stop offset="0%" stop-color="#0F172A"/>
      <stop offset="50%" stop-color="#0B0F19"/>
      <stop offset="100%" stop-color="#020617"/>
    </linearGradient>
    <linearGradient id="llmGrad" x1="0%" y1="0%" x2="100%" y2="0%">
      <stop offset="0%" stop-color="#64748B"/>
      <stop offset="100%" stop-color="#94A3B8"/>
    </linearGradient>
    <linearGradient id="ragGrad" x1="0%" y1="0%" x2="100%" y2="0%">
      <stop offset="0%" stop-color="#3B82F6"/>
      <stop offset="100%" stop-color="#60A5FA"/>
    </linearGradient>
    <linearGradient id="graphragGrad" x1="0%" y1="0%" x2="100%" y2="0%">
      <stop offset="0%" stop-color="#6366F1"/>
      <stop offset="50%" stop-color="#8B5CF6"/>
      <stop offset="100%" stop-color="#EC4899"/>
    </linearGradient>
    <filter id="glow" x="-20%" y="-20%" width="140%" height="140%">
      <feGaussianBlur stdDeviation="8" result="blur" />
      <feComposite in="SourceGraphic" in2="blur" operator="over" />
    </filter>
    <filter id="cardShadow" x="-10%" y="-10%" width="120%" height="120%">
      <feDropShadow dx="0" dy="8" stdDeviation="12" flood-color="#000000" flood-opacity="0.5"/>
    </filter>
  </defs>

  <!-- Background -->
  <rect width="900" height="560" rx="16" fill="url(#bgGrad)"/>
  <rect x="1" y="1" width="898" height="558" rx="15" fill="none" stroke="#1E293B" stroke-width="1.5"/>

  <!-- Header -->
  <g transform="translate(50, 45)">
    <rect x="0" y="0" width="120" height="24" rx="12" fill="#6366F1" fill-opacity="0.15" stroke="#6366F1" stroke-width="1"/>
    <text x="60" y="16" fill="#A5B4FC" font-family="-apple-system, BlinkMacSystemFont, 'Segoe UI', Roboto, sans-serif" font-size="11" font-weight="700" text-anchor="middle" letter-spacing="1">BENCHMARK</text>
    <text x="0" y="55" fill="#F8FAFC" font-family="-apple-system, BlinkMacSystemFont, 'Segoe UI', Roboto, sans-serif" font-size="24" font-weight="800">3-Pipeline Performance Comparison</text>
    <text x="0" y="78" fill="#94A3B8" font-family="-apple-system, BlinkMacSystemFont, 'Segoe UI', Roboto, sans-serif" font-size="13">Evaluation across 8,000+ arXiv Papers on TigerGraph Cloud (Savanna) with Gemini 3.8 Flash</text>
  </g>

  <!-- Legend -->
  <g transform="translate(560, 50)">
    <rect x="0" y="0" width="12" height="12" rx="3" fill="#64748B"/>
    <text x="18" y="10" fill="#94A3B8" font-family="sans-serif" font-size="12">LLM-Only</text>
    <rect x="90" y="0" width="12" height="12" rx="3" fill="#3B82F6"/>
    <text x="108" y="10" fill="#94A3B8" font-family="sans-serif" font-size="12">Basic RAG</text>
    <rect x="185" y="0" width="12" height="12" rx="3" fill="#8B5CF6"/>
    <text x="203" y="10" fill="#F1F5F9" font-family="sans-serif" font-size="12" font-weight="600">GraphRAG</text>
  </g>

  <!-- Grid Lines -->
  <g transform="translate(240, 160)" stroke="#1E293B" stroke-dasharray="3 3">
    <line x1="0" y1="0" x2="0" y2="320"/>
    <line x1="150" y1="0" x2="150" y2="320"/>
    <line x1="300" y1="0" x2="300" y2="320"/>
    <line x1="450" y1="0" x2="450" y2="320"/>
    <line x1="600" y1="0" x2="600" y2="320"/>
  </g>
  <g transform="translate(240, 495)" fill="#64748B" font-family="sans-serif" font-size="11" text-anchor="middle">
    <text x="0" y="0">0%</text>
    <text x="150" y="0">25%</text>
    <text x="300" y="0">50%</text>
    <text x="450" y="0">75%</text>
    <text x="600" y="0">100%</text>
  </g>

  <!-- Metric 1: Answer Accuracy (Judge Pass) -->
  <g transform="translate(50, 175)">
    <text x="0" y="16" fill="#F1F5F9" font-family="sans-serif" font-size="14" font-weight="600">Answer Accuracy</text>
    <text x="0" y="32" fill="#64748B" font-family="sans-serif" font-size="11">LLM-as-a-Judge Pass</text>
    <!-- Bars -->
    <rect x="190" y="0" width="252" height="14" rx="7" fill="url(#llmGrad)"/>
    <text x="450" y="11" fill="#94A3B8" font-family="sans-serif" font-size="11" font-weight="600">42.0%</text>

    <rect x="190" y="18" width="384" height="14" rx="7" fill="url(#ragGrad)"/>
    <text x="582" y="29" fill="#93C5FD" font-family="sans-serif" font-size="11" font-weight="600">64.0%</text>

    <rect x="190" y="36" width="564" height="16" rx="8" fill="url(#graphragGrad)" filter="url(#glow)"/>
    <text x="762" y="49" fill="#F472B6" font-family="sans-serif" font-size="12" font-weight="800">94.0%</text>
  </g>

  <!-- Metric 2: Hallucination Reduction -->
  <g transform="translate(50, 255)">
    <text x="0" y="16" fill="#F1F5F9" font-family="sans-serif" font-size="14" font-weight="600">Faithfulness</text>
    <text x="0" y="32" fill="#64748B" font-family="sans-serif" font-size="11">Grounded in Evidence</text>

    <rect x="190" y="0" width="180" height="14" rx="7" fill="url(#llmGrad)"/>
    <text x="378" y="11" fill="#94A3B8" font-family="sans-serif" font-size="11" font-weight="600">30.0%</text>

    <rect x="190" y="18" width="342" height="14" rx="7" fill="url(#ragGrad)"/>
    <text x="540" y="29" fill="#93C5FD" font-family="sans-serif" font-size="11" font-weight="600">57.0%</text>

    <rect x="190" y="36" width="576" height="16" rx="8" fill="url(#graphragGrad)" filter="url(#glow)"/>
    <text x="774" y="49" fill="#F472B6" font-family="sans-serif" font-size="12" font-weight="800">96.0%</text>
  </g>

  <!-- Metric 3: Multi-Hop Retrieval Recall -->
  <g transform="translate(50, 335)">
    <text x="0" y="16" fill="#F1F5F9" font-family="sans-serif" font-size="14" font-weight="600">Multi-Hop Recall</text>
    <text x="0" y="32" fill="#64748B" font-family="sans-serif" font-size="11">2+ Hops across Papers</text>

    <rect x="190" y="0" width="90" height="14" rx="7" fill="url(#llmGrad)"/>
    <text x="288" y="11" fill="#94A3B8" font-family="sans-serif" font-size="11" font-weight="600">15.0%</text>

    <rect x="190" y="18" width="288" height="14" rx="7" fill="url(#ragGrad)"/>
    <text x="486" y="29" fill="#93C5FD" font-family="sans-serif" font-size="11" font-weight="600">48.0%</text>

    <rect x="190" y="36" width="534" height="16" rx="8" fill="url(#graphragGrad)" filter="url(#glow)"/>
    <text x="732" y="49" fill="#F472B6" font-family="sans-serif" font-size="12" font-weight="800">89.0%</text>
  </g>

  <!-- Metric 4: Provenance Completeness -->
  <g transform="translate(50, 415)">
    <text x="0" y="16" fill="#F1F5F9" font-family="sans-serif" font-size="14" font-weight="600">Provenance Audit</text>
    <text x="0" y="32" fill="#64748B" font-family="sans-serif" font-size="11">Citations & Trajectory</text>

    <rect x="190" y="0" width="0" height="14" rx="7" fill="url(#llmGrad)"/>
    <text x="198" y="11" fill="#64748B" font-family="sans-serif" font-size="11" font-weight="600">0.0% (None)</text>

    <rect x="190" y="18" width="270" height="14" rx="7" fill="url(#ragGrad)"/>
    <text x="468" y="29" fill="#93C5FD" font-family="sans-serif" font-size="11" font-weight="600">45.0%</text>

    <rect x="190" y="36" width="600" height="16" rx="8" fill="url(#graphragGrad)" filter="url(#glow)"/>
    <text x="798" y="49" fill="#F472B6" font-family="sans-serif" font-size="12" font-weight="800">100.0%</text>
  </g>

  <!-- Footer highlight badge -->
  <g transform="translate(50, 505)">
    <rect x="0" y="0" width="800" height="30" rx="6" fill="#1E293B" fill-opacity="0.5" stroke="#334155" stroke-width="1"/>
    <text x="400" y="19" fill="#CBD5E1" font-family="sans-serif" font-size="11" text-anchor="middle">
      <tspan fill="#34D399" font-weight="bold">+46.8% relative accuracy gain</tspan> over Basic RAG with <tspan fill="#38BDF8" font-weight="bold">100% verifiable provenance</tspan> on every answer.
    </text>
  </g>
</svg>
